# xmcd
#
# Track frame offsets:
#	150
#	16307
#	32355
#	47068
#	60052
#	71090
#	86548
#	104413
#	116226
#	133232
#	147704
#	161096
#
# Disc length: 2341 seconds
#
# Revision: 1
# Processed by: cddbd v1.5.2PL0 Copyright (c) Steve Scherf et al.
# Submitted via: audiograbber 1.83.01
#
DISCID=a709230c
DTITLE=Scandinavia - Fly
DYEAR=2007
DGENRE=Danseband
TTITLE0=Der ingen skulle tru at nokon kunne bu
TTITLE1=Du skal vite at jeg savner deg
TTITLE2=Ta med deg døra
TTITLE3=Mega bambino
TTITLE4=Bryggedansen
TTITLE5=Fly
TTITLE6=Pablo's sang
TTITLE7=Kan du forstå hva jeg tenkte på
TTITLE8=Jag ska alltid elska deg
TTITLE9=Et steg for langt
TTITLE10=Vil du være med så bare heng deg på
TTITLE11=Jeg tar det som en mann
EXTD=
EXTT0=
EXTT1=
EXTT2=
EXTT3=
EXTT4=
EXTT5=
EXTT6=
EXTT7=
EXTT8=
EXTT9=
EXTT10=
EXTT11=
PLAYORDER=
